<?xml version="1.0" standalone="no"?><!DOCTYPE svg PUBLIC "-//W3C//DTD SVG 1.1//EN" "http://www.w3.org/Graphics/SVG/1.1/DTD/svg11.dtd"><svg t="1575427954932" class="icon" viewBox="0 0 1024 1024" version="1.1" xmlns="http://www.w3.org/2000/svg" p-id="2011" xmlns:xlink="http://www.w3.org/1999/xlink" width="64" height="64"><defs><style type="text/css"></style></defs><path d="M848 402.3L562.8 515.7c-11.6 5.5-27.7 8.5-47.7 8.5-18.2 0-34-2.5-49.8-8.1L107.1 374.9C69.5 359 64 334.6 64 321.4c0-13.2 5.5-37.7 42.5-53.2l354.7-141c27.3-11 74.1-11 101.6 0L916.9 268c37.5 15.8 43.1 40.3 43.1 53.5 0 13.2-5.5 37.6-42.6 53.2l-13.9 5.5c0.3 1.6 0.4 3.3 0.4 5V530c0 16-12.5 29-28 29s-28-13-28-29V402.3z m0 214.6c0-16 12.5-29 28-29s28 13 28 29-12.5 29-28 29-28-13-28-29zM205.4 493.6c0-2.7 0.5-5.3 1.4-7.8 4.3-11.7 17.3-17.7 29-13.4l237.6 87.7c31.3 11.6 65.8 11.1 96.9-1.2l215.1-85.4c2.7-1.1 5.5-1.6 8.3-1.6 12.5 0 22.6 10.1 22.6 22.6V769c0 44.1-35.8 79.6-107.3 106.6-107.3 40.5-311.9 40.5-409-8-64.8-32.4-96.3-68.3-94.6-107.8V493.6z" p-id="2012" fill="#2DA7DC"></path></svg>