<?xml version="1.0" standalone="no"?><!DOCTYPE svg PUBLIC "-//W3C//DTD SVG 1.1//EN" "http://www.w3.org/Graphics/SVG/1.1/DTD/svg11.dtd"><svg class="icon" width="128px" height="128.00px" viewBox="0 0 1024 1024" version="1.1" xmlns="http://www.w3.org/2000/svg"><path d="M896 489.472h-46.2848C838.656 320.7168 703.2832 185.344 534.528 174.2848V128c0-12.288-10.0352-22.3232-22.3232-22.3232h-0.4096c-12.288 0-22.3232 10.0352-22.3232 22.3232v46.2848C320.7168 185.344 185.344 320.7168 174.2848 489.472H128c-12.288 0-22.3232 10.0352-22.3232 22.3232v0.4096c0 12.288 10.0352 22.3232 22.3232 22.3232h46.2848c11.264 168.7552 146.432 304.128 315.1872 315.1872v46.2848c0 12.288 10.0352 22.3232 22.3232 22.3232h0.4096c12.288 0 22.3232-10.0352 22.3232-22.3232v-46.2848c168.7552-11.264 304.128-146.432 315.1872-315.1872h46.2848c12.288 0 22.3232-10.0352 22.3232-22.3232v-0.4096c0-12.288-10.0352-22.3232-22.3232-22.3232z m-114.0736 0h-39.7312c-10.6496-109.568-98.0992-197.0176-207.6672-207.6672v-39.7312c131.4816 10.8544 236.544 115.9168 247.3984 247.3984z m-146.0224 45.056h72.2944c-10.4448 90.9312-82.7392 163.2256-173.6704 173.6704v-72.2944c0-12.288-10.0352-22.3232-22.3232-22.3232h-0.4096c-12.288 0-22.3232 10.0352-22.3232 22.3232v72.2944c-90.9312-10.4448-163.2256-82.7392-173.6704-173.6704h72.2944c12.288 0 22.3232-10.0352 22.3232-22.3232v-0.4096c0-12.288-10.0352-22.3232-22.3232-22.3232h-72.2944c10.4448-90.9312 82.7392-163.2256 173.6704-173.6704v72.2944c0 12.288 10.0352 22.3232 22.3232 22.3232h0.4096c12.288 0 22.3232-10.0352 22.3232-22.3232v-72.2944c90.9312 10.4448 163.2256 82.7392 173.6704 173.6704h-72.2944c-12.288 0-22.3232 10.0352-22.3232 22.3232v0.4096c0 12.288 10.0352 22.3232 22.3232 22.3232zM489.472 242.0736v39.7312c-109.568 10.6496-197.0176 98.0992-207.6672 207.6672h-39.7312c10.8544-131.4816 115.9168-236.544 247.3984-247.3984zM242.0736 534.528h39.7312c10.6496 109.568 98.0992 197.0176 207.6672 207.6672v39.7312c-131.4816-10.8544-236.544-115.9168-247.3984-247.3984zM534.528 781.9264v-39.7312c109.568-10.6496 197.0176-98.0992 207.6672-207.6672h39.7312c-10.8544 131.4816-115.9168 236.544-247.3984 247.3984z m0 0" fill="#FF7777" /></svg>