<?xml version="1.0" standalone="no"?><!DOCTYPE svg PUBLIC "-//W3C//DTD SVG 1.1//EN" "http://www.w3.org/Graphics/SVG/1.1/DTD/svg11.dtd"><svg class="icon" width="128px" height="128.00px" viewBox="0 0 1024 1024" version="1.1" xmlns="http://www.w3.org/2000/svg"><path d="M952.32 768a133.12 133.12 0 0 1-108.3392 130.72896A20.21376 20.21376 0 0 1 834.56 901.12H194.56a20.48 20.48 0 0 1-20.48-20.48v-245.76h-25.6a20.48 20.48 0 0 1-20.48-20.48v-76.8a20.48 20.48 0 0 1 20.48-20.48h194.56V418.816l-42.3936 23.43424a17.92 17.92 0 0 1-16.5888-31.77984L491.52 295.7824V244.57728A392.192 392.192 0 0 1 491.52 204.8V148.48a20.44928 20.44928 0 0 1 39.0144-8.6016 194.13504 194.13504 0 0 1 28.16 15.22176q88.6272 55.54688-3.7888 104.51968a233.55904 233.55904 0 0 1-22.4256 10.58816v28.24704l207.4624 112.04096a17.92 17.92 0 0 1-16.5888 31.77984L680.96 419.3792V517.12h194.56a20.48 20.48 0 0 1 20.48 20.48v76.8a20.48 20.48 0 0 1-20.48 20.48h-20.48v5.02272A133.12 133.12 0 0 1 952.32 768zM296.96 691.2h-46.08v66.56h46.08v-66.56z m0 92.16h-46.08v66.56h46.08v-66.56z m138.24 87.04h30.72v-92.16a25.6 25.6 0 0 1 25.6-25.6h51.2a25.6 25.6 0 0 1 25.6 25.6v92.16h25.6v-117.76a25.6 25.6 0 0 0-25.6-25.6H460.8a25.6 25.6 0 0 0-25.6 25.6v117.76z m76.8-445.44a92.16 92.16 0 1 0 92.16 92.16 92.16 92.16 0 0 0-92.16-92.16z m304.64 235.52a104.96 104.96 0 1 0 104.96 104.96 104.96 104.96 0 0 0-104.96-104.96z m74.24 107.52l-61.44 76.8v-40.96h-71.68v-71.68h71.68v-40.96z" fill="#ff7777" /></svg>