<?xml version="1.0" standalone="no"?><!DOCTYPE svg PUBLIC "-//W3C//DTD SVG 1.1//EN" "http://www.w3.org/Graphics/SVG/1.1/DTD/svg11.dtd"><svg class="icon" width="128px" height="128.00px" viewBox="0 0 1024 1024" version="1.1" xmlns="http://www.w3.org/2000/svg"><path d="M372.28619 736.053245c0-35.780366 5.111481-69.856905 15.334442-100.525791 10.222962-32.372712 25.557404-61.33777 44.299501-88.599001s40.891847-51.114809 66.449251-71.560733c25.557404-20.445923 54.522463-37.484193 85.191348-49.410981 1.703827-5.111481 3.407654-10.222962 6.815308-17.03827l5.111481-13.630615c0-3.407654 1.703827-8.519135 3.407654-11.926789 6.815308-1.703827 11.926789-5.111481 17.038269-10.222962 5.111481-3.407654 8.519135-10.222962 13.630616-17.038269 3.407654-6.815308 6.815308-18.742097 6.815308-30.668886v-23.853577c-1.703827-6.815308-3.407654-11.926789-6.815308-17.03827-3.407654-5.111481-6.815308-8.519135-10.222962-11.926788 0-25.557404-1.703827-49.410982-5.111481-73.264559-3.407654-20.445923-8.519135-42.595674-15.334442-66.449252s-18.742097-44.299501-34.076539-63.041597c-6.815308-8.519135-17.03827-17.03827-27.261232-25.557404-11.926789-8.519135-25.557404-15.334443-39.18802-22.149751-15.334443-6.815308-30.668885-11.926789-47.707154-15.334442-17.03827-3.407654-34.076539-6.815308-51.114809-6.815308-13.630616 0-27.261231 1.703827-42.595674 3.407654-15.334443 1.703827-30.668885 6.815308-44.299501 11.926789-15.334443 6.815308-30.668885 15.334443-44.299501 25.557404s-27.261231 23.853577-39.18802 40.891847c-11.926789 17.03827-22.14975 37.484193-27.261231 59.633943-6.815308 22.14975-10.222962 42.595674-13.630615 63.041598-1.703827 23.853577-3.407654 46.003328-3.407654 68.153078-5.111481 6.815308-8.519135 11.926789-11.926789 18.742096-3.407654 6.815308-5.111481 13.630616-5.111481 22.149751s0 17.03827 3.407654 27.261231c3.407654 10.222962 6.815308 18.742097 10.222962 23.853577 3.407654 5.111481 8.519135 10.222962 11.926788 13.630616 5.111481 3.407654 8.519135 5.111481 13.630616 6.815308 3.407654 10.222962 6.815308 18.742097 8.519135 27.261231 3.407654 8.519135 6.815308 15.334443 10.222962 23.853577 3.407654 6.815308 8.519135 13.630616 13.630615 17.03827 10.222962 8.519135 20.445923 17.03827 27.261231 25.557404 8.519135 8.519135 13.630616 20.445923 13.630616 32.372713v25.557404c0 6.815308-1.703827 15.334443-5.111481 22.14975-3.407654 6.815308-8.519135 15.334443-15.334442 22.149751s-17.03827 15.334443-28.965059 23.853577c-10.222962 6.815308-22.14975 11.926789-35.780366 17.03827-13.630616 5.111481-27.261231 8.519135-40.891847 13.630615-13.630616 3.407654-27.261231 8.519135-40.891846 11.926789-13.630616 5.111481-25.557404 10.222962-35.780367 17.038269-10.222962 6.815308-20.445923 15.334443-27.261231 25.557405-6.815308 10.222962-11.926789 22.14975-15.334442 35.780366-6.815308 39.18802-6.815308 71.560732-3.407654 95.414309 3.407654 25.557404 8.519135 39.18802 15.334442 44.299501 3.407654 3.407654 13.630616 6.815308 27.261232 8.519135 13.630616 3.407654 30.668885 6.815308 51.114808 8.519135 20.445923 3.407654 42.595674 6.815308 66.449251 8.519135 23.853577 3.407654 49.410982 5.111481 73.26456 6.815307 25.557404 1.703827 49.410982 3.407654 71.560732 5.111481 23.853577 1.703827 44.299501 1.703827 61.33777 1.703827h23.853577c-13.630616-25.557404-25.557404-52.818636-34.076539-80.079867-11.926789-27.261231-15.334443-57.930116-15.334442-88.599001z m601.450915-109.044926c-15.334443-34.076539-35.780366-64.745424-61.337771-90.302828s-54.522463-46.003328-90.302828-59.633944c-34.076539-15.334443-71.560732-22.14975-110.748752-22.14975s-76.672213 6.815308-110.748752 22.14975-64.745424 35.780366-90.302829 61.337771-46.003328 56.22629-61.33777 90.302828c-15.334443 34.076539-22.14975 71.560732-22.149751 110.748753s6.815308 76.672213 22.149751 110.748752 35.780366 64.745424 61.33777 90.302828 56.22629 46.003328 90.302829 61.337771c34.076539 15.334443 71.560732 22.14975 110.748752 22.14975s76.672213-6.815308 110.748752-22.14975 64.745424-35.780366 90.302828-61.337771 46.003328-56.22629 61.337771-90.302828c15.334443-34.076539 22.14975-71.560732 22.14975-110.748752 1.703827-40.891847-6.815308-76.672213-22.14975-112.45258z m-153.344426 224.905159c-8.519135 8.519135-18.742097 11.926789-30.668885 11.926788-10.222962 0-22.14975-5.111481-30.668886-11.926788l-85.191347-86.895175c-6.815308-6.815308-11.926789-18.742097-11.926789-30.668885V562.262895c0-23.853577 18.742097-42.595674 42.595674-42.595674s42.595674 18.742097 42.595674 42.595674v155.048253l73.264559 73.264559c15.334443 17.03827 15.334443 44.299501 0 61.337771z" fill="#FFC658" /></svg>