<?xml version="1.0" standalone="no"?><!DOCTYPE svg PUBLIC "-//W3C//DTD SVG 1.1//EN" "http://www.w3.org/Graphics/SVG/1.1/DTD/svg11.dtd"><svg t="1575644837711" class="icon" viewBox="0 0 1024 1024" version="1.1" xmlns="http://www.w3.org/2000/svg" p-id="2290" xmlns:xlink="http://www.w3.org/1999/xlink" width="200" height="200"><defs><style type="text/css"></style></defs><path d="M614.69312 511.99872l308.08448 308.09088c18.9056 18.8992 18.9056 49.55008 0 68.45824l-34.22976 34.22976c-18.9056 18.90688-49.56032 18.90688-68.45952 0L511.99872 614.6944l-308.0896 308.0832c-18.90048 18.90688-49.55008 18.90688-68.45568 0l-34.23488-34.22976c-18.90432-18.90816-18.90432-49.56032 0-68.45824l308.08576-308.09088L101.21856 203.9104c-18.90432-18.90048-18.90432-49.55008 0-68.45952l34.23488-34.22976c18.9056-18.9056 49.5552-18.9056 68.45568 0L511.99872 409.3056 820.08832 101.22112c18.90048-18.9056 49.5552-18.9056 68.45952 0l34.22976 34.22976c18.9056 18.90944 18.9056 49.56416 0 68.45952L614.69312 511.99872 614.69312 511.99872zM614.69312 511.99872" p-id="2291" fill="#d81e06"></path></svg>